<?xml version="1.0" encoding="UTF-8"?>
<svg width="362px" height="81px" viewBox="0 0 362 81" version="1.1" xmlns="http://www.w3.org/2000/svg" xmlns:xlink="http://www.w3.org/1999/xlink">
    <!-- Generator: Sketch 51.3 (57544) - http://www.bohemiancoding.com/sketch -->
    <title>Group 39 Copy</title>
    <desc>Created with Sketch.</desc>
    <defs>
        <linearGradient x1="-0.000640650542%" y1="49.9998306%" x2="99.9999672%" y2="49.9998306%" id="linearGradient-1">
            <stop stop-color="#028C95" offset="0%"></stop>
            <stop stop-color="#89C141" offset="100%"></stop>
        </linearGradient>
    </defs>
    <g id="Symbols" stroke="none" stroke-width="1" fill="none" fill-rule="evenodd">
        <g id="Footer" transform="translate(-64.000000, -48.000000)">
            <g id="Group-39-Copy">
                <g transform="translate(245.000000, 89.000000) rotate(-360.000000) translate(-245.000000, -89.000000) translate(64.000000, 48.000000)">
                    <g id="Group-26">
                        <path d="M5.70977916e-05,35.5461679 L6.67935678,35.5461679 L6.67935678,44.098259 L6.74673218,44.098259 C7.89325584,42.735484 9.37779842,41.747573 12.2115618,41.747573 C15.3485145,41.747573 18.2159656,43.6893688 18.2159656,47.7436679 L18.2159656,59.8742691 L11.5366659,59.8742691 L11.5366659,50.6058992 C11.5366659,48.562025 11.3008521,47.130621 9.34411073,47.130621 C8.19701609,47.130621 6.67935678,47.7102185 6.67935678,50.537847 L6.67935678,59.8742691 L5.70977916e-05,59.8742691 L5.70977916e-05,35.5461679 Z" id="Fill-1" fill="#028C95"></path>
                        <path d="M21.13903,35.5461679 L27.8177587,35.5461679 L27.8177587,44.098259 L27.885705,44.098259 C29.0327997,42.735484 30.5167713,41.747573 33.3505347,41.747573 C36.4874874,41.747573 39.3549385,43.6893688 39.3549385,47.7436679 L39.3549385,59.8742691 L32.6762098,59.8742691 L32.6762098,50.6058992 C32.6762098,48.562025 32.4398249,47.130621 30.4830836,47.130621 C29.335989,47.130621 27.8177587,47.7102185 27.8177587,50.537847 L27.8177587,59.8742691 L21.13903,59.8742691 L21.13903,35.5461679 Z" id="Fill-3" fill="#00A34F"></path>
                        <path d="M42.2610448,42.1904893 L48.7045306,42.1904893 L48.7045306,44.5411753 L48.771906,44.5411753 C50.1211268,42.4967244 52.0778681,41.747573 54.5062372,41.747573 C56.3956032,41.747573 58.4197199,42.735484 59.2293666,44.5071492 C59.4988681,44.3029925 60.848089,41.747573 65.2000826,41.747573 C69.6862562,41.747573 71.2044864,44.8820133 71.2044864,47.7436679 L71.2044864,59.8742691 L64.5251868,59.8742691 L64.5251868,50.2996641 C64.5251868,48.6300772 64.3567483,47.130621 62.3326315,47.130621 C60.6459628,47.130621 60.0727009,48.4599466 60.0727009,50.2996641 L60.0727009,59.8742691 L53.3934013,59.8742691 L53.3934013,50.2996641 C53.3934013,48.6300772 53.2243918,47.130621 51.2002751,47.130621 C49.5141773,47.130621 48.9403445,48.4599466 48.9403445,50.2996641 L48.9403445,59.8742691 L42.2610448,59.8742691 L42.2610448,42.1904893 Z" id="Fill-5" fill="#51B348"></path>
                        <polygon id="Clip-8" points="-3.69482223e-13 80.9481465 361.771609 80.9481465 361.771609 3.55271368e-14 -3.69482223e-13 3.55271368e-14"></polygon>
                        <polygon id="Fill-7" fill="#8AC241" points="74.0489842 59.8744421 80.7282839 59.8744421 80.7282839 42.1906623 74.0489842 42.1906623"></polygon>
                        <path d="M80.9024322,40.0241787 C81.0012114,39.6902613 81.0554543,39.3367357 81.0554543,38.9699456 C81.0554543,36.9243412 79.4138927,35.2657119 77.3880631,35.2657119 C75.3622334,35.2657119 73.7206719,36.9243412 73.7206719,38.9699456 C73.7206719,39.3367357 73.7749148,39.6902613 73.873694,40.0241787 L80.9024322,40.0241787 Z" id="Fill-9" fill="#8AC241"></path>
                        <path d="M318.421709,39.9678337 C318.521059,39.6327629 318.575302,39.2775071 318.575302,38.9095636 C318.575302,36.8558853 316.926889,35.1903354 314.892495,35.1903354 C312.859813,35.1903354 311.210829,36.8558853 311.210829,38.9095636 C311.210829,39.2775071 311.265072,39.6327629 311.364422,39.9678337 L318.421709,39.9678337 Z" id="Fill-10" fill="#FFFFFF"></path>
                        <path d="M140.44892,40.0337521 C140.54827,39.6986813 140.602513,39.3434255 140.602513,38.975482 C140.602513,36.9218037 138.9541,35.2556771 136.920276,35.2556771 C134.887024,35.2556771 133.23804,36.9218037 133.23804,38.975482 C133.23804,39.3434255 133.292283,39.6986813 133.391633,40.0337521 L140.44892,40.0337521 Z" id="Fill-11" fill="#FFFFFF"></path>
                        <path d="M115.981317,49.578541 L115.981317,54.0959413 L119.444869,54.0959413 C121.39533,54.0959413 122.874733,53.6882046 122.874733,51.8542542 C122.874733,49.7140688 121.025336,49.578541 118.503326,49.578541 L115.981317,49.578541 Z M115.981317,41.0535554 L115.981317,45.1291929 L119.276431,45.1291929 C120.857468,45.1291929 122.000566,44.4157977 122.000566,42.9895841 C122.000566,41.0875815 120.453787,41.0535554 118.772257,41.0535554 L115.981317,41.0535554 Z M108.045295,59.8019491 L108.045295,35.3481243 L119.613308,35.3481243 C125.060437,35.3481243 129.398156,36.6388101 129.398156,41.4947416 C129.398156,44.0086377 127.784002,45.8420113 126.237222,46.8276154 C128.860295,47.5069845 130.272894,49.782121 130.272894,52.4315449 C130.272894,57.8999465 126.13673,59.8019491 119.847979,59.8019491 L108.045295,59.8019491 Z" id="Fill-12" fill="#FFFFFF"></path>
                        <polygon id="Fill-13" fill="#FFFFFF" points="133.536319 59.8017761 140.530798 59.8017761 140.530798 42.0049604 133.536319 42.0049604"></polygon>
                        <path d="M150.484485,50.733353 C150.484485,54.096172 151.728646,55.555835 153.511239,55.555835 C155.393753,55.555835 156.537422,54.096172 156.537422,50.733353 C156.537422,48.1179552 155.393753,46.1479004 153.578043,46.2499788 C151.190785,46.2499788 150.484485,48.729272 150.484485,50.733353 M153.477551,41.4949723 C159.698356,41.4949723 163.53133,45.1974758 163.53133,50.733353 C163.53133,57.2542576 159.159923,60.3114182 153.511239,60.3114182 C147.861412,60.3114182 143.490576,57.1862054 143.490576,51.1070636 C143.490576,44.9258435 147.525677,41.4949723 153.477551,41.4949723" id="Fill-14" fill="#FFFFFF"></path>
                        <polygon id="Fill-15" fill="#FFFFFF" points="166.963079 59.8017761 174.899101 59.8017761 174.899101 35.3479513 166.963079 35.3479513"></polygon>
                        <path d="M178.766334,42.0049604 L185.155006,42.0049604 L185.155006,44.7899121 C186.735473,42.6497266 188.450691,41.4951453 191.10688,41.4951453 C195.747789,41.4951453 197.932921,44.2460708 197.932921,49.1371818 L197.932921,59.8017761 L190.939013,59.8017761 L190.939013,50.3938415 C190.939013,48.6273667 190.468527,47.0656253 188.484379,47.0656253 C186.332363,47.0656253 185.760814,48.4572361 185.760814,50.733526 L185.760814,59.8017761 L178.766334,59.8017761 L178.766334,42.0049604 Z" id="Fill-16" fill="#FFFFFF"></path>
                        <path d="M212.494685,59.8019491 C203.315073,60.3111876 202.205092,59.6658446 202.205092,53.518074 L202.205092,46.0807709 L199.71677,46.0807709 L199.71677,42.0051334 L202.306155,42.0051334 L202.306155,36.4686795 L209.199572,36.4686795 L209.199572,42.0051334 L212.562061,42.0051334 L212.562061,46.0807709 L209.199572,46.0807709 L209.199572,52.5330465 C209.199572,54.1639936 209.434815,54.7412842 211.385275,54.7412842 L212.494685,54.7412842 L212.494685,59.8019491 Z" id="Fill-17" fill="#FFFFFF"></path>
                        <path d="M228.232835,48.8990566 C228.232835,47.269263 226.786548,45.8084466 225.138706,45.8084466 C223.054065,45.8084466 221.87728,46.997054 221.87728,48.8990566 L228.232835,48.8990566 Z M221.87728,52.4994818 C221.87728,54.6056411 223.490863,55.9978286 225.340832,55.9978286 C226.450813,55.9978286 227.459731,55.4885902 227.963333,54.4355105 L234.655766,54.4355105 C233.444721,58.8508325 229.005939,60.3116489 224.904034,60.3116489 C219.254207,60.3116489 214.8828,57.0509083 214.8828,51.0726915 C214.8828,45.2311559 219.221091,41.4952029 224.869775,41.4952029 C231.393769,41.4952029 235.327807,46.0466294 235.227315,52.4994818 L221.87728,52.4994818 Z" id="Fill-18" fill="#FFFFFF"></path>
                        <path d="M237.682976,42.0049604 L244.038532,42.0049604 L244.038532,45.6048089 L244.105336,45.6048089 C245.080566,42.8198572 246.795213,41.4951453 249.518778,41.4951453 C249.821967,41.4951453 250.124585,41.5631975 250.427203,41.5966469 L250.427203,48.6613928 C249.956147,48.5933405 249.451973,48.4572361 248.981487,48.4572361 C246.123172,48.4572361 244.676885,49.8165508 244.676885,53.6545822 L244.676885,59.8017761 L237.682976,59.8017761 L237.682976,42.0049604 Z" id="Fill-19" fill="#FFFFFF"></path>
                        <path d="M263.911703,51.9223065 C261.625508,53.0434384 258.598754,52.4995971 258.598754,54.8093365 C258.598754,55.6917088 259.439804,56.3036023 260.818145,56.3036023 C263.27335,56.3036023 264.079571,54.3675736 263.911703,51.9223065 Z M264.618003,59.8019491 L264.281697,57.8999465 C262.29812,59.767923 260.280855,60.3111876 257.657211,60.3111876 C254.32841,60.3111876 251.369032,58.6473678 251.369032,54.9448643 C251.369032,46.8610649 263.911703,50.5295423 263.911703,47.2013261 C263.911703,45.9106403 262.364924,45.7405097 261.625508,45.7405097 C260.649707,45.7405097 259.33817,45.9440897 259.170303,47.4729584 L252.445325,47.4729584 C252.445325,43.7029793 255.101514,41.4947416 262.062306,41.4947416 C270.401438,41.4947416 270.906754,44.6199545 270.906754,48.8657225 L270.906754,57.1865514 C270.906754,58.2056049 270.939871,58.7148433 271.847155,59.4616879 L271.847155,59.8019491 L264.618003,59.8019491 Z" id="Fill-20" fill="#FFFFFF"></path>
                        <path d="M286.308655,48.7973819 C286.274396,48.0159345 286.006037,47.4046178 285.568668,46.9634316 C285.131298,46.4882193 284.526062,46.2500364 283.752958,46.2500364 C281.130456,46.2500364 280.693087,49.0015387 280.693087,51.1071213 C280.693087,53.7899946 281.702005,55.5558927 283.752958,55.5558927 C285.568668,55.5558927 286.274396,54.2998097 286.477093,52.9070455 L293.538377,52.9070455 C293.235759,55.5904955 292.025286,57.458472 290.243264,58.6470795 C288.494929,59.8022375 286.207592,60.3114759 283.752958,60.3114759 C278.069444,60.3114759 273.699179,57.0853381 273.699179,51.0725185 C273.699179,44.9933767 277.935264,41.4950299 283.752958,41.4950299 C288.461242,41.4950299 292.899453,43.5325603 293.404197,48.7973819 L286.308655,48.7973819 Z" id="Fill-21" fill="#FFFFFF"></path>
                        <path d="M307.965105,59.8019491 C298.784922,60.3111876 297.675512,59.6658446 297.675512,53.518074 L297.675512,46.0807709 L295.18719,46.0807709 L295.18719,42.0051334 L297.776004,42.0051334 L297.776004,36.4686795 L304.669991,36.4686795 L304.669991,42.0051334 L308.03248,42.0051334 L308.03248,46.0807709 L304.669991,46.0807709 L304.669991,52.5330465 C304.669991,54.1639936 304.905234,54.7412842 306.855695,54.7412842 L307.965105,54.7412842 L307.965105,59.8019491 Z" id="Fill-22" fill="#FFFFFF"></path>
                        <polygon id="Fill-23" fill="#FFFFFF" points="311.39594 59.8017761 318.389849 59.8017761 318.389849 42.0049604 311.39594 42.0049604"></polygon>
                        <polygon id="Fill-24" fill="#FFFFFF" points="320.509319 42.0049604 327.503227 42.0049604 330.596215 53.2462687 333.656656 42.0049604 340.382205 42.0049604 334.430331 59.8017761 326.62906 59.8017761"></polygon>
                        <path d="M354.775245,48.8990566 C354.775245,47.269263 353.329529,45.8084466 351.682258,45.8084466 C349.597046,45.8084466 348.420261,46.997054 348.420261,48.8990566 L354.775245,48.8990566 Z M348.420261,52.4994818 C348.420261,54.6056411 350.033844,55.9978286 351.883242,55.9978286 C352.993223,55.9978286 354.002141,55.4885902 354.506315,54.4355105 L361.198176,54.4355105 C359.987703,58.8508325 355.54892,60.3116489 351.446444,60.3116489 C345.797188,60.3116489 341.425781,57.0509083 341.425781,51.0726915 C341.425781,45.2311559 345.763501,41.4952029 351.413327,41.4952029 C357.936179,41.4952029 361.870788,46.0466294 361.769725,52.4994818 L348.420261,52.4994818 Z" id="Fill-25" fill="#FFFFFF"></path>
                    </g>
                    <g id="Group-29" transform="translate(310.093110, 0.000000)">
                        <path d="M0.490244654,0.000952864157 C0.283252467,0.00326568467 0.21960667,0.169210556 0.21960667,0.440388762 C0.21960667,0.849757992 0.523501017,16.6162554 0.523501017,16.6162554 C0.523501017,16.6162554 0.529234872,17.5731849 1.13243648,16.9232824 C1.73678486,16.273958 4.17883396,13.6471721 4.17883396,13.6471721 C4.17883396,13.6471721 4.68628019,12.9307759 5.09281055,13.5448298 C5.49876752,14.1588836 10.2704822,20.60934 10.2704822,20.60934 C10.2704822,20.60934 9.66097331,21.8374477 7.73210428,21.7351054 C7.73210428,21.7351054 7.94483033,20.6764118 7.94483033,20.1490888 C7.94483033,19.6217657 7.5210984,18.757349 6.63751125,18.9626118 C5.75449748,19.1678747 5.96091629,19.8443747 6.44141339,20.5445811 C6.92191049,21.2442093 6.63751125,21.4673965 6.37604743,21.5333118 C6.115157,21.598649 5.8135562,21.1141131 5.7063331,20.6608003 C5.59911,20.2086439 5.2338634,18.8533311 4.37722537,19.5703054 C3.52116073,20.2867016 4.56357568,20.6926016 4.8405209,21.2933567 C5.11746613,21.8935336 5.32961878,22.3508939 4.80669115,22.2844003 C4.28376352,22.2190631 3.7166852,21.2187682 3.19433096,21.1528529 C2.67140333,21.0875157 1.21959109,21.9415247 4.15303161,22.9441324 C4.48616863,23.0580388 4.97985359,23.4356067 4.45635258,23.6998465 C4.16621948,23.8455541 3.99649736,23.78889 3.82505507,23.7322259 C3.68801592,23.6865477 3.54925662,23.6414477 3.34570475,23.6998465 C2.88814307,23.831099 2.62667925,24.2265913 2.88814307,24.6220836 C3.14960688,25.0175759 4.13583005,25.0042772 4.65875768,24.7406157 C5.18168531,24.4769541 5.56183994,24.3127439 5.78832723,23.9716029 C6.01424114,23.63104 6.115157,23.5101952 6.63751125,23.7085195 C7.16043888,23.9056875 7.95973835,24.4590298 9.18678345,24.4335888 C10.4149753,24.4075695 11.6706897,23.4830195 11.9992396,23.0071567 C12.3277896,22.5312939 12.6506056,22.1265503 13.0428013,22.6538734 C13.4355705,23.1806182 18.0106138,27.596949 28.2719218,26.0149798 C28.2719218,26.0149798 29.7099728,25.7513182 29.9054973,27.2673721 C30.1015952,28.7834259 30.8051392,30.6932375 32.4926129,31.9340657 C33.2024643,32.4567631 33.1210435,32.8325965 32.5986893,33.6889182 C32.0751883,34.5458182 32.690431,36.1960157 33.1508596,36.298358 C33.8784858,36.4596772 33.8566972,35.2367734 33.7913312,34.9071965 C33.7259653,34.5776195 33.5528028,33.6391926 34.0889183,33.5940926 C34.6256072,33.550149 34.611846,34.31974 34.611846,34.9783157 C34.611846,35.6374695 34.4811141,36.230708 35.0688343,36.4943695 C35.6577012,36.7580311 36.2454214,36.7909888 36.4082629,35.9491221 C36.5711044,35.1072554 36.2052844,34.9800503 35.9386602,34.5920747 C35.6726093,34.2035208 35.3383255,33.7877913 35.8583862,33.4287259 C36.3818872,33.0673477 36.4633079,34.0080875 37.2259107,34.516908 C37.9890869,35.0268849 38.6404529,34.1312452 38.0756681,33.3969247 C37.5114568,32.6614477 36.6381905,32.5400247 36.6381905,32.1445324 C36.6381905,31.74904 36.9088285,31.875667 37.6880595,31.7872016 C38.1622494,31.7328503 38.7247406,31.5894554 38.5389637,30.838367 C38.3967641,30.0329272 37.7683335,30.2341426 36.1548265,30.931458 C34.7018675,31.5593888 34.2196502,29.6397477 34.2196502,29.0465093 C34.2196502,28.4532708 34.1514174,27.8577195 34.1445367,26.4445862 C34.1376561,25.0320311 34.4054272,25.0135285 35.2655055,25.0268272 C38.8296702,25.0800221 41.8680402,25.3922529 49.169532,33.7883695 C49.6890193,34.3862336 49.8931445,34.3989541 49.7102346,33.1332631 C49.4820271,31.5651708 46.8650954,21.8316657 38.7946936,19.0285272 C38.4300204,18.9019003 37.6186799,18.8307811 38.4024979,16.7879824 C39.1868894,14.7446054 37.357216,11.7124977 37.2912767,11.5153298 C37.2259107,11.3170054 37.1611182,11.0539221 37.8142043,10.723767 C38.4678639,10.39419 38.9070772,10.1415144 38.7866662,9.04408107 C38.6863238,8.14034645 37.788402,8.0779003 37.2924235,8.49189517 C36.7970183,8.90531184 37.0693765,9.98597722 36.6381905,9.93336056 C36.2064312,9.88016568 36.4076895,9.3407003 36.4959909,8.50461568 C36.5854391,7.66853107 35.7070124,7.42337209 35.1118382,7.81770799 C34.5155172,8.21146568 34.6187266,8.96775799 34.8801904,9.42916568 C35.1416542,9.89057338 35.7012785,10.1582824 35.2655055,10.5919362 C34.8285857,11.0267465 34.2993508,10.1808324 34.1571512,9.78476184 C33.8956874,9.05622338 33.211065,8.23748492 32.2649789,9.3071644 C31.5115502,10.1605952 32.6296521,10.4323516 33.3733332,10.8631144 C34.1170142,11.2944554 34.0889183,11.9761593 33.5659907,11.9761593 C33.0430631,11.9761593 32.4146325,10.9510016 31.9920473,11.9807849 C31.7397577,12.5919477 32.3091296,13.3794631 32.9622157,13.2476324 C33.6158753,13.1158016 34.2850162,12.7012285 34.9381024,12.8989747 C35.5923353,13.0967208 35.5923353,13.6899593 35.3962374,14.151367 C35.2001396,14.6127747 33.6313567,17.578967 33.6313567,17.578967 C33.6313567,17.578967 33.5659907,17.8420503 32.3894035,17.9079657 C31.2128164,17.9744593 25.3310273,18.5012041 22.1934615,17.5124734 C19.0558957,16.5237426 19.0558957,16.3265747 19.6441893,15.6015054 C20.2324829,14.8764362 20.7559839,14.0195362 21.474436,14.2172824 C22.1934615,14.4150285 22.9698256,15.1996529 23.3161504,15.7691849 C23.6619019,16.3392952 24.453174,16.6075824 24.7908981,16.0548182 C25.1005263,15.5454195 24.2157924,15.1753682 23.9577689,14.9417734 C23.6997454,14.7093349 23.6315125,14.3491131 24.2192327,14.3491131 C24.8075263,14.3491131 25.4009803,14.7584824 25.8596888,14.692567 C26.3172505,14.6260734 26.630319,14.1976234 26.3126634,13.6489067 C26.0145029,13.1331477 24.9485791,13.2158311 24.4812699,13.0967208 C24.0133873,12.9776106 24.475536,12.5231413 25.8533815,12.3716516 C27.04373,12.2409772 26.42218,10.0039016 25.2129099,11.0597041 C24.7261055,11.4841067 24.6120018,11.6471606 24.2192327,11.7784131 C23.827037,11.9102439 23.5099548,11.5326759 23.8373579,11.1371836 C24.1636143,10.7416913 24.9881427,10.5028926 24.8201408,10.0449541 C24.7295458,9.79748235 24.2685438,9.25686056 23.6395399,9.73330158 C23.0099625,10.2103208 22.5627218,10.3860952 22.4985026,11.2429952 C22.4640995,11.693417 22.238759,12.0362926 21.258843,11.9703772 C20.2783537,11.9044618 19.8041639,11.7489247 18.9911031,12.5693977 C18.5318213,13.03254 17.7864201,13.6263567 17.4876862,13.8877054 C17.1895257,14.1490541 16.5719895,14.0854516 16.1150012,13.4922131 C15.6574395,12.8989747 11.4092259,9.14237594 11.4092259,9.14237594 C11.4092259,9.14237594 10.9510908,8.61505286 11.6047504,8.21956056 C12.2589833,7.82406825 14.978551,6.65551568 15.4613416,6.43984517 C16.2755491,6.07673235 16.3930932,5.8795644 15.7228055,5.64886056 C14.6047036,5.26493235 1.49596293,0.405118249 0.930031379,0.132783633 C0.744254458,0.0437400436 0.603774995,0.00210927441 0.499418823,0.000952864157 L0.490244654,0.000952864157 Z" id="Clip-28"></path>
                        <path d="M0.490244654,0.000952864157 C0.283252467,0.00326568467 0.21960667,0.169210556 0.21960667,0.440388762 C0.21960667,0.849757992 0.523501017,16.6162554 0.523501017,16.6162554 C0.523501017,16.6162554 0.529234872,17.5731849 1.13243648,16.9232824 C1.73678486,16.273958 4.17883396,13.6471721 4.17883396,13.6471721 C4.17883396,13.6471721 4.68628019,12.9307759 5.09281055,13.5448298 C5.49876752,14.1588836 10.2704822,20.60934 10.2704822,20.60934 C10.2704822,20.60934 9.66097331,21.8374477 7.73210428,21.7351054 C7.73210428,21.7351054 7.94483033,20.6764118 7.94483033,20.1490888 C7.94483033,19.6217657 7.5210984,18.757349 6.63751125,18.9626118 C5.75449748,19.1678747 5.96091629,19.8443747 6.44141339,20.5445811 C6.92191049,21.2442093 6.63751125,21.4673965 6.37604743,21.5333118 C6.115157,21.598649 5.8135562,21.1141131 5.7063331,20.6608003 C5.59911,20.2086439 5.2338634,18.8533311 4.37722537,19.5703054 C3.52116073,20.2867016 4.56357568,20.6926016 4.8405209,21.2933567 C5.11746613,21.8935336 5.32961878,22.3508939 4.80669115,22.2844003 C4.28376352,22.2190631 3.7166852,21.2187682 3.19433096,21.1528529 C2.67140333,21.0875157 1.21959109,21.9415247 4.15303161,22.9441324 C4.48616863,23.0580388 4.97985359,23.4356067 4.45635258,23.6998465 C4.16621948,23.8455541 3.99649736,23.78889 3.82505507,23.7322259 C3.68801592,23.6865477 3.54925662,23.6414477 3.34570475,23.6998465 C2.88814307,23.831099 2.62667925,24.2265913 2.88814307,24.6220836 C3.14960688,25.0175759 4.13583005,25.0042772 4.65875768,24.7406157 C5.18168531,24.4769541 5.56183994,24.3127439 5.78832723,23.9716029 C6.01424114,23.63104 6.115157,23.5101952 6.63751125,23.7085195 C7.16043888,23.9056875 7.95973835,24.4590298 9.18678345,24.4335888 C10.4149753,24.4075695 11.6706897,23.4830195 11.9992396,23.0071567 C12.3277896,22.5312939 12.6506056,22.1265503 13.0428013,22.6538734 C13.4355705,23.1806182 18.0106138,27.596949 28.2719218,26.0149798 C28.2719218,26.0149798 29.7099728,25.7513182 29.9054973,27.2673721 C30.1015952,28.7834259 30.8051392,30.6932375 32.4926129,31.9340657 C33.2024643,32.4567631 33.1210435,32.8325965 32.5986893,33.6889182 C32.0751883,34.5458182 32.690431,36.1960157 33.1508596,36.298358 C33.8784858,36.4596772 33.8566972,35.2367734 33.7913312,34.9071965 C33.7259653,34.5776195 33.5528028,33.6391926 34.0889183,33.5940926 C34.6256072,33.550149 34.611846,34.31974 34.611846,34.9783157 C34.611846,35.6374695 34.4811141,36.230708 35.0688343,36.4943695 C35.6577012,36.7580311 36.2454214,36.7909888 36.4082629,35.9491221 C36.5711044,35.1072554 36.2052844,34.9800503 35.9386602,34.5920747 C35.6726093,34.2035208 35.3383255,33.7877913 35.8583862,33.4287259 C36.3818872,33.0673477 36.4633079,34.0080875 37.2259107,34.516908 C37.9890869,35.0268849 38.6404529,34.1312452 38.0756681,33.3969247 C37.5114568,32.6614477 36.6381905,32.5400247 36.6381905,32.1445324 C36.6381905,31.74904 36.9088285,31.875667 37.6880595,31.7872016 C38.1622494,31.7328503 38.7247406,31.5894554 38.5389637,30.838367 C38.3967641,30.0329272 37.7683335,30.2341426 36.1548265,30.931458 C34.7018675,31.5593888 34.2196502,29.6397477 34.2196502,29.0465093 C34.2196502,28.4532708 34.1514174,27.8577195 34.1445367,26.4445862 C34.1376561,25.0320311 34.4054272,25.0135285 35.2655055,25.0268272 C38.8296702,25.0800221 41.8680402,25.3922529 49.169532,33.7883695 C49.6890193,34.3862336 49.8931445,34.3989541 49.7102346,33.1332631 C49.4820271,31.5651708 46.8650954,21.8316657 38.7946936,19.0285272 C38.4300204,18.9019003 37.6186799,18.8307811 38.4024979,16.7879824 C39.1868894,14.7446054 37.357216,11.7124977 37.2912767,11.5153298 C37.2259107,11.3170054 37.1611182,11.0539221 37.8142043,10.723767 C38.4678639,10.39419 38.9070772,10.1415144 38.7866662,9.04408107 C38.6863238,8.14034645 37.788402,8.0779003 37.2924235,8.49189517 C36.7970183,8.90531184 37.0693765,9.98597722 36.6381905,9.93336056 C36.2064312,9.88016568 36.4076895,9.3407003 36.4959909,8.50461568 C36.5854391,7.66853107 35.7070124,7.42337209 35.1118382,7.81770799 C34.5155172,8.21146568 34.6187266,8.96775799 34.8801904,9.42916568 C35.1416542,9.89057338 35.7012785,10.1582824 35.2655055,10.5919362 C34.8285857,11.0267465 34.2993508,10.1808324 34.1571512,9.78476184 C33.8956874,9.05622338 33.211065,8.23748492 32.2649789,9.3071644 C31.5115502,10.1605952 32.6296521,10.4323516 33.3733332,10.8631144 C34.1170142,11.2944554 34.0889183,11.9761593 33.5659907,11.9761593 C33.0430631,11.9761593 32.4146325,10.9510016 31.9920473,11.9807849 C31.7397577,12.5919477 32.3091296,13.3794631 32.9622157,13.2476324 C33.6158753,13.1158016 34.2850162,12.7012285 34.9381024,12.8989747 C35.5923353,13.0967208 35.5923353,13.6899593 35.3962374,14.151367 C35.2001396,14.6127747 33.6313567,17.578967 33.6313567,17.578967 C33.6313567,17.578967 33.5659907,17.8420503 32.3894035,17.9079657 C31.2128164,17.9744593 25.3310273,18.5012041 22.1934615,17.5124734 C19.0558957,16.5237426 19.0558957,16.3265747 19.6441893,15.6015054 C20.2324829,14.8764362 20.7559839,14.0195362 21.474436,14.2172824 C22.1934615,14.4150285 22.9698256,15.1996529 23.3161504,15.7691849 C23.6619019,16.3392952 24.453174,16.6075824 24.7908981,16.0548182 C25.1005263,15.5454195 24.2157924,15.1753682 23.9577689,14.9417734 C23.6997454,14.7093349 23.6315125,14.3491131 24.2192327,14.3491131 C24.8075263,14.3491131 25.4009803,14.7584824 25.8596888,14.692567 C26.3172505,14.6260734 26.630319,14.1976234 26.3126634,13.6489067 C26.0145029,13.1331477 24.9485791,13.2158311 24.4812699,13.0967208 C24.0133873,12.9776106 24.475536,12.5231413 25.8533815,12.3716516 C27.04373,12.2409772 26.42218,10.0039016 25.2129099,11.0597041 C24.7261055,11.4841067 24.6120018,11.6471606 24.2192327,11.7784131 C23.827037,11.9102439 23.5099548,11.5326759 23.8373579,11.1371836 C24.1636143,10.7416913 24.9881427,10.5028926 24.8201408,10.0449541 C24.7295458,9.79748235 24.2685438,9.25686056 23.6395399,9.73330158 C23.0099625,10.2103208 22.5627218,10.3860952 22.4985026,11.2429952 C22.4640995,11.693417 22.238759,12.0362926 21.258843,11.9703772 C20.2783537,11.9044618 19.8041639,11.7489247 18.9911031,12.5693977 C18.5318213,13.03254 17.7864201,13.6263567 17.4876862,13.8877054 C17.1895257,14.1490541 16.5719895,14.0854516 16.1150012,13.4922131 C15.6574395,12.8989747 11.4092259,9.14237594 11.4092259,9.14237594 C11.4092259,9.14237594 10.9510908,8.61505286 11.6047504,8.21956056 C12.2589833,7.82406825 14.978551,6.65551568 15.4613416,6.43984517 C16.2755491,6.07673235 16.3930932,5.8795644 15.7228055,5.64886056 C14.6047036,5.26493235 1.49596293,0.405118249 0.930031379,0.132783633 C0.744254458,0.0437400436 0.603774995,0.00210927441 0.499418823,0.000952864157 L0.490244654,0.000952864157 Z" id="Fill-27" fill="url(#linearGradient-1)"></path>
                    </g>
                    <g id="Group-38" transform="translate(93.027933, 0.366667)">
                        <path d="M218.276612,0.746285687 C218.276612,0.746285687 226.030158,16.743763 236.130233,20.0878587 C236.130233,20.0878587 239.713761,21.5304098 245.903908,21.1369868 C245.903908,21.1369868 241.180555,21.2134857 236.390894,19.1698717 C229.513081,16.2358792 223.88027,6.51591482 223.88027,6.51591482 C223.88027,6.51591482 224.59709,6.90933784 225.444241,6.31920331 C226.291392,5.72964396 226.359415,5.03597705 226.359415,5.03597705 L225.59515,4.66556123 C225.59515,4.66556123 225.79522,5.11017525 225.125845,5.52718065 C224.426745,5.96201662 223.606461,5.78428605 223.293781,4.94222274 C222.981101,4.10073461 223.385813,3.48011554 224.076338,3.17239432 C224.076338,3.17239432 220.361335,1.79541374 218.276612,0.746285687" id="Fill-30" fill="#FFFFFF"></path>
                        <path d="M241.473285,22.7103913 C241.473285,22.7103913 246.15891,23.3149053 249.549801,23.3045521 C252.940691,23.2941988 254.648712,23.3718481 257.371942,24.4146492 C263.026474,26.5807765 267.114749,33.9005154 266.52826,32.8513873 C265.942343,31.8022592 264.213743,26.9718988 260.303816,24.6119359 C256.395032,22.2513977 254.634993,22.0546862 249.943652,22.1858272 C245.25231,22.3169682 241.473285,22.7103913 241.473285,22.7103913" id="Fill-32" fill="#FFFFFF"></path>
                        <path d="M219.010695,7.55992378 C219.010695,7.55992378 220.202537,7.46444392 220.501498,8.32893925 C220.627828,8.6930281 220.769591,9.39589788 219.792109,9.46146838 C219.792109,9.46146838 218.554537,9.39589788 219.075289,9.85489141 C219.596613,10.3138849 220.566664,10.1896461 220.957085,9.86179356 C221.348649,9.53451623 221.747073,8.93690436 221.161156,8.15005831 C220.574095,7.36321227 219.66235,6.37965472 219.010695,7.55992378" id="Fill-34" fill="#FFFFFF"></path>
                        <path d="M0.597350017,31.5144392 L0.597350017,80.5813072" id="Stroke-36" stroke="#FFFFFF" stroke-width="0.6"></path>
                    </g>
                </g>
            </g>
        </g>
    </g>
</svg>